<?xml version="1.0" encoding="UTF-8"?>
<svg xmlns="http://www.w3.org/2000/svg" width="700" height="600" viewBox="0 0 700 600">
  <defs>
    <style>
      .title { font-family: Arial, sans-serif; font-size: 18px; font-weight: bold; fill: #2c3e50; }
      .layer-title { font-family: Arial, sans-serif; font-size: 14px; font-weight: bold; fill: #34495e; }
      .component { font-family: Arial, sans-serif; font-size: 12px; fill: white; font-weight: bold; }
      .description { font-family: Arial, sans-serif; font-size: 10px; fill: #666; }
      .arrow { stroke: #666; stroke-width: 2; fill: none; marker-end: url(#arrowhead); }
    </style>
    <marker id="arrowhead" markerWidth="10" markerHeight="7" refX="9" refY="3.5" orient="auto">
      <polygon points="0 0, 10 3.5, 0 7" fill="#666"/>
    </marker>
  </defs>
  
  <!-- Background -->
  <rect width="700" height="600" fill="#f8f9fa" stroke="#dee2e6" stroke-width="2" rx="10"/>
  
  <!-- Title -->
  <text x="350" y="30" text-anchor="middle" class="title">Plugin System Architecture</text>
  
  <!-- Application Core Layer -->
  <text x="50" y="70" class="layer-title">Application Core</text>
  <rect x="250" y="80" width="200" height="50" fill="#3498db" rx="8"/>
  <text x="350" y="105" text-anchor="middle" class="component">MainAppWindow</text>
  <text x="350" y="120" text-anchor="middle" class="description" fill="white">Application Entry Point</text>
  
  <!-- Plugin Management Layer -->
  <text x="50" y="170" class="layer-title">Plugin Management</text>
  
  <!-- Plugin Manager -->
  <rect x="80" y="180" width="120" height="40" fill="#e74c3c" rx="6"/>
  <text x="140" y="202" text-anchor="middle" class="component">Plugin Manager</text>
  
  <!-- Activity Manager -->
  <rect x="220" y="180" width="120" height="40" fill="#e74c3c" rx="6"/>
  <text x="280" y="202" text-anchor="middle" class="component">Activity Manager</text>
  
  <!-- Sidebar Manager -->
  <rect x="360" y="180" width="120" height="40" fill="#e74c3c" rx="6"/>
  <text x="420" y="202" text-anchor="middle" class="component">Sidebar Manager</text>
  
  <!-- Tab Manager -->
  <rect x="500" y="180" width="120" height="40" fill="#e74c3c" rx="6"/>
  <text x="560" y="202" text-anchor="middle" class="component">Tab Manager</text>
  
  <!-- Activity Configuration Layer -->
  <text x="50" y="270" class="layer-title">Activity Configuration</text>
  
  <!-- Activity Config -->
  <rect x="100" y="280" width="150" height="40" fill="#f39c12" rx="6"/>
  <text x="175" y="302" text-anchor="middle" class="component">ActivityConfig</text>
  
  <!-- Activity Model -->
  <rect x="270" y="280" width="150" height="40" fill="#f39c12" rx="6"/>
  <text x="345" y="302" text-anchor="middle" class="component">ActivityModel</text>
  
  <!-- Core Activities -->
  <rect x="440" y="280" width="150" height="40" fill="#f39c12" rx="6"/>
  <text x="515" y="302" text-anchor="middle" class="component">Core Activities</text>
  
  <!-- Activity Instances Layer -->
  <text x="50" y="370" class="layer-title">Activity Instances</text>
  
  <!-- Explorer -->
  <rect x="50" y="380" width="100" height="35" fill="#27ae60" rx="5"/>
  <text x="100" y="400" text-anchor="middle" class="component">Explorer</text>
  
  <!-- Search -->
  <rect x="170" y="380" width="100" height="35" fill="#27ae60" rx="5"/>
  <text x="220" y="400" text-anchor="middle" class="component">Search</text>
  
  <!-- Preferences -->
  <rect x="290" y="380" width="100" height="35" fill="#27ae60" rx="5"/>
  <text x="340" y="400" text-anchor="middle" class="component">Preferences</text>
  
  <!-- Extensions -->
  <rect x="410" y="380" width="100" height="35" fill="#27ae60" rx="5"/>
  <text x="460" y="400" text-anchor="middle" class="component">Extensions</text>
  
  <!-- Account -->
  <rect x="530" y="380" width="100" height="35" fill="#27ae60" rx="5"/>
  <text x="580" y="400" text-anchor="middle" class="component">Account</text>
  
  <!-- Panel System Layer -->
  <text x="50" y="460" class="layer-title">Panel System</text>
  
  <!-- Panel Interface -->
  <rect x="150" y="470" width="150" height="35" fill="#9b59b6" rx="5"/>
  <text x="225" y="490" text-anchor="middle" class="component">Panel Interface</text>
  
  <!-- Panel Implementations -->
  <rect x="320" y="470" width="200" height="35" fill="#9b59b6" rx="5"/>
  <text x="420" y="490" text-anchor="middle" class="component">Panel Implementations</text>
  
  <!-- Arrows showing flow -->
  <!-- From MainAppWindow to Plugin Manager -->
  <line x1="350" y1="130" x2="140" y2="175" class="arrow"/>
  
  <!-- From Plugin Manager to Activity Manager -->
  <line x1="200" y1="200" x2="220" y2="200" class="arrow"/>
  
  <!-- From Activity Manager to Sidebar Manager -->
  <line x1="340" y1="200" x2="360" y2="200" class="arrow"/>
  
  <!-- From Sidebar Manager to Tab Manager -->
  <line x1="480" y1="200" x2="500" y2="200" class="arrow"/>
  
  <!-- From Activity Manager to Activity Config -->
  <line x1="280" y1="220" x2="175" y2="275" class="arrow"/>
  
  <!-- From Activity Config to Activity Model -->
  <line x1="250" y1="300" x2="270" y2="300" class="arrow"/>
  
  <!-- From Activity Model to Core Activities -->
  <line x1="420" y1="300" x2="440" y2="300" class="arrow"/>
  
  <!-- From Core Activities to Activity Instances -->
  <line x1="515" y1="320" x2="340" y2="375" class="arrow"/>
  
  <!-- From Activity Instances to Panel System -->
  <line x1="340" y1="415" x2="280" y2="465" class="arrow"/>
  
  <!-- Legend -->
  <text x="50" y="550" class="layer-title">Architecture Flow</text>
  <text x="50" y="570" class="description">1. MainAppWindow initializes Plugin Manager</text>
  <text x="50" y="585" class="description">2. Plugin Manager coordinates Activity/Sidebar/Tab Managers</text>
</svg>
