<?xml version="1.0" encoding="UTF-8"?>
<svg width="200" height="150" viewBox="0 0 200 150" xmlns="http://www.w3.org/2000/svg">
  <!-- Background -->
  <rect width="200" height="150" fill="#2d3748" rx="8"/>
  
  <!-- Sidebar -->
  <rect x="8" y="8" width="50" height="134" fill="#1a202c" rx="4"/>
  
  <!-- Sidebar icons -->
  <circle cx="33" cy="25" r="6" fill="#4a5568"/>
  <circle cx="33" cy="45" r="6" fill="#3182ce"/>
  <circle cx="33" cy="65" r="6" fill="#4a5568"/>
  <circle cx="33" cy="85" r="6" fill="#4a5568"/>
  
  <!-- Main content area -->
  <rect x="66" y="8" width="126" height="134" fill="#edf2f7" rx="4"/>
  
  <!-- Toolbar -->
  <rect x="74" y="16" width="110" height="20" fill="#718096" rx="2"/>
  <rect x="78" y="19" width="12" height="4" fill="#ffffff" rx="1"/>
  <rect x="78" y="26" width="16" height="4" fill="#ffffff" rx="1"/>
  
  <!-- File tree structure -->
  <!-- Folder 1 -->
  <rect x="78" y="48" width="8" height="6" fill="#ed8936" rx="1"/>
  <rect x="88" y="50" width="40" height="2" fill="#2d3748"/>
  
  <!-- File 1 under folder -->
  <rect x="88" y="58" width="6" height="6" fill="#3182ce" rx="1"/>
  <rect x="96" y="60" width="30" height="2" fill="#2d3748"/>
  
  <!-- File 2 under folder -->
  <rect x="88" y="68" width="6" height="6" fill="#38a169" rx="1"/>
  <rect x="96" y="70" width="35" height="2" fill="#2d3748"/>
  
  <!-- Folder 2 -->
  <rect x="78" y="80" width="8" height="6" fill="#ed8936" rx="1"/>
  <rect x="88" y="82" width="45" height="2" fill="#2d3748"/>
  
  <!-- File 3 -->
  <rect x="78" y="92" width="6" height="6" fill="#9f7aea" rx="1"/>
  <rect x="86" y="94" width="38" height="2" fill="#2d3748"/>
  
  <!-- File 4 -->
  <rect x="78" y="102" width="6" height="6" fill="#e53e3e" rx="1"/>
  <rect x="86" y="104" width="32" height="2" fill="#2d3748"/>
  
  <!-- Context menu -->
  <rect x="120" y="85" width="55" height="45" fill="#ffffff" stroke="#cbd5e0" stroke-width="1" rx="3"/>
  <rect x="125" y="90" width="45" height="3" fill="#4a5568" rx="1"/>
  <rect x="125" y="96" width="40" height="3" fill="#4a5568" rx="1"/>
  <rect x="125" y="102" width="38" height="3" fill="#4a5568" rx="1"/>
  <rect x="125" y="108" width="42" height="3" fill="#4a5568" rx="1"/>
  <rect x="125" y="114" width="35" height="3" fill="#4a5568" rx="1"/>
  <rect x="125" y="120" width="25" height="3" fill="#e53e3e" rx="1"/>
  
  <!-- Selection highlight on folder -->
  <rect x="76" y="46" width="100" height="10" fill="#3182ce" fill-opacity="0.2" rx="2"/>
</svg>
