<?xml version="1.0" encoding="UTF-8"?>
<svg xmlns="http://www.w3.org/2000/svg" width="600" height="500" viewBox="0 0 600 500">
  <defs>
    <style>
      .title { font-family: Arial, sans-serif; font-size: 18px; font-weight: bold; fill: #2c3e50; }
      .layer-title { font-family: Arial, sans-serif; font-size: 14px; font-weight: bold; fill: #34495e; }
      .component { font-family: Arial, sans-serif; font-size: 11px; fill: white; font-weight: bold; }
      .service-name { font-family: Arial, sans-serif; font-size: 10px; fill: white; font-weight: bold; }
      .description { font-family: Arial, sans-serif; font-size: 9px; fill: #666; }
      .arrow { stroke: #666; stroke-width: 2; fill: none; marker-end: url(#arrowhead); }
      .service-arrow { stroke: #e74c3c; stroke-width: 1.5; fill: none; marker-end: url(#service-arrowhead); }
    </style>
    <marker id="arrowhead" markerWidth="10" markerHeight="7" refX="9" refY="3.5" orient="auto">
      <polygon points="0 0, 10 3.5, 0 7" fill="#666"/>
    </marker>
    <marker id="service-arrowhead" markerWidth="8" markerHeight="6" refX="7" refY="3" orient="auto">
      <polygon points="0 0, 8 3, 0 6" fill="#e74c3c"/>
    </marker>
  </defs>
  
  <!-- Background -->
  <rect width="600" height="500" fill="#f8f9fa" stroke="#dee2e6" stroke-width="2" rx="10"/>
  
  <!-- Title -->
  <text x="300" y="30" text-anchor="middle" class="title">Services Architecture</text>
  
  <!-- UI Layer -->
  <text x="50" y="70" class="layer-title">UI Components Layer</text>
  <rect x="50" y="80" width="500" height="50" fill="#e3f2fd" stroke="#2196f3" stroke-width="2" rx="8"/>
  
  <!-- UI Components -->
  <rect x="70" y="95" width="90" height="20" fill="#2196f3" rx="3"/>
  <text x="115" y="107" text-anchor="middle" class="service-name">Explorer Panel</text>
  
  <rect x="180" y="95" width="90" height="20" fill="#2196f3" rx="3"/>
  <text x="225" y="107" text-anchor="middle" class="service-name">Context Menu</text>
  
  <rect x="290" y="95" width="90" height="20" fill="#2196f3" rx="3"/>
  <text x="335" y="107" text-anchor="middle" class="service-name">File View</text>
  
  <rect x="400" y="95" width="90" height="20" fill="#2196f3" rx="3"/>
  <text x="445" y="107" text-anchor="middle" class="service-name">Activity Bar</text>
  
  <!-- Service Layer -->
  <text x="50" y="170" class="layer-title">Core Services Layer</text>
  <rect x="50" y="180" width="500" height="160" fill="#f3e5f5" stroke="#9c27b0" stroke-width="2" rx="8"/>
  
  <!-- File Operations Service -->
  <rect x="70" y="200" width="110" height="50" fill="#e74c3c" rx="6"/>
  <text x="125" y="220" text-anchor="middle" class="component">File Operations</text>
  <text x="125" y="235" text-anchor="middle" class="service-name">Service</text>
  <text x="70" y="265" class="description">• Copy/Move/Delete</text>
  <text x="70" y="275" class="description">• File Creation</text>
  <text x="70" y="285" class="description">• Permission Mgmt</text>
  
  <!-- Theme Manager Service -->
  <rect x="200" y="200" width="110" height="50" fill="#f39c12" rx="6"/>
  <text x="255" y="220" text-anchor="middle" class="component">Theme Manager</text>
  <text x="255" y="235" text-anchor="middle" class="service-name">Service</text>
  <text x="200" y="265" class="description">• CSS Management</text>
  <text x="200" y="275" class="description">• Light/Dark Themes</text>
  <text x="200" y="285" class="description">• Custom Themes</text>
  
  <!-- Undo/Redo Service -->
  <rect x="330" y="200" width="110" height="50" fill="#27ae60" rx="6"/>
  <text x="385" y="220" text-anchor="middle" class="component">Undo/Redo</text>
  <text x="385" y="235" text-anchor="middle" class="service-name">Service</text>
  <text x="330" y="265" class="description">• Command Pattern</text>
  <text x="330" y="275" class="description">• Action History</text>
  <text x="330" y="285" class="description">• State Recovery</text>
  
  <!-- File Numbering Service -->
  <rect x="460" y="200" width="110" height="50" fill="#3498db" rx="6"/>
  <text x="515" y="220" text-anchor="middle" class="component">File Numbering</text>
  <text x="515" y="235" text-anchor="middle" class="service-name">Service</text>
  <text x="460" y="265" class="description">• Auto Numbering</text>
  <text x="460" y="275" class="description">• Name Conflicts</text>
  <text x="460" y="285" class="description">• Sequence Mgmt</text>
  
  <!-- Data Layer -->
  <text x="50" y="370" class="layer-title">Data Access Layer</text>
  <rect x="50" y="380" width="500" height="70" fill="#e8f5e8" stroke="#4caf50" stroke-width="2" rx="8"/>
  
  <!-- Data Components -->
  <rect x="100" y="395" width="120" height="25" fill="#4caf50" rx="4"/>
  <text x="160" y="410" text-anchor="middle" class="component">Directory Model</text>
  
  <rect x="240" y="395" width="120" height="25" fill="#4caf50" rx="4"/>
  <text x="300" y="410" text-anchor="middle" class="component">File System API</text>
  
  <rect x="380" y="395" width="120" height="25" fill="#4caf50" rx="4"/>
  <text x="440" y="410" text-anchor="middle" class="component">Settings Storage</text>
  
  <text x="100" y="435" class="description">Tree Structure</text>
  <text x="240" y="435" class="description">OS Integration</text>
  <text x="380" y="435" class="description">Configuration</text>
  
  <!-- Service Communication Arrows -->
  <!-- UI to Services -->
  <line x1="115" y1="130" x2="125" y2="195" class="service-arrow"/>
  <line x1="225" y1="130" x2="255" y2="195" class="service-arrow"/>
  <line x1="335" y1="130" x2="385" y2="195" class="service-arrow"/>
  <line x1="445" y1="130" x2="515" y2="195" class="service-arrow"/>
  
  <!-- Services to Data Layer -->
  <line x1="125" y1="295" x2="160" y2="375" class="service-arrow"/>
  <line x1="255" y1="295" x2="300" y2="375" class="service-arrow"/>
  <line x1="385" y1="295" x2="440" y2="375" class="service-arrow"/>
  <line x1="515" y1="295" x2="440" y2="375" class="service-arrow"/>
  
  <!-- Inter-service communication -->
  <line x1="180" y1="225" x2="200" y2="225" class="arrow"/>
  <line x1="310" y1="225" x2="330" y2="225" class="arrow"/>
  <line x1="440" y1="225" x2="460" y2="225" class="arrow"/>
  
  <!-- Legend -->
  <text x="50" y="480" class="layer-title">Service Communication</text>
  <line x1="60" y1="490" x2="80" y2="490" class="service-arrow"/>
  <text x="90" y="495" class="description">Service Calls</text>
  <line x1="180" y1="490" x2="200" y2="490" class="arrow"/>
  <text x="210" y="495" class="description">Coordination</text>
</svg>
